<svg width="234" height="72" viewBox="0 0 234 72" fill="none" xmlns="http://www.w3.org/2000/svg">
<path d="M70.38 54.5C70.02 54.5 69.696 54.374 69.408 54.122C69.156 53.834 69.03 53.51 69.03 53.15V18.05C69.03 17.654 69.156 17.33 69.408 17.078C69.696 16.826 70.02 16.7 70.38 16.7H76.212C77.076 16.7 77.706 17.096 78.102 17.888L87.606 34.898L97.11 17.888C97.506 17.096 98.136 16.7 99 16.7H104.778C105.174 16.7 105.498 16.826 105.75 17.078C106.038 17.33 106.182 17.654 106.182 18.05V53.15C106.182 53.546 106.038 53.87 105.75 54.122C105.498 54.374 105.174 54.5 104.778 54.5H98.352C97.956 54.5 97.614 54.374 97.326 54.122C97.074 53.87 96.948 53.546 96.948 53.15V32.9L90.9 44.186C90.432 45.014 89.802 45.428 89.01 45.428H86.202C85.734 45.428 85.356 45.32 85.068 45.104C84.78 44.888 84.528 44.582 84.312 44.186L78.21 32.9V53.15C78.21 53.51 78.084 53.834 77.832 54.122C77.58 54.374 77.256 54.5 76.86 54.5H70.38ZM126.115 55.04C121.795 55.04 118.393 53.87 115.909 51.53C113.425 49.19 112.129 45.788 112.021 41.324V39.434C112.165 35.186 113.479 31.874 115.963 29.498C118.483 27.086 121.849 25.88 126.061 25.88C129.121 25.88 131.695 26.51 133.783 27.77C135.907 28.994 137.491 30.686 138.535 32.846C139.615 35.006 140.155 37.49 140.155 40.298V41.594C140.155 41.954 140.029 42.278 139.777 42.566C139.525 42.818 139.201 42.944 138.805 42.944H121.525V43.322C121.597 45.014 122.011 46.382 122.767 47.426C123.523 48.47 124.621 48.992 126.061 48.992C126.961 48.992 127.699 48.812 128.275 48.452C128.851 48.056 129.373 47.588 129.841 47.048C130.165 46.652 130.417 46.418 130.597 46.346C130.813 46.238 131.137 46.184 131.569 46.184H138.265C138.589 46.184 138.859 46.292 139.075 46.508C139.327 46.688 139.453 46.94 139.453 47.264C139.453 48.2 138.913 49.28 137.833 50.504C136.789 51.728 135.259 52.79 133.243 53.69C131.227 54.59 128.851 55.04 126.115 55.04ZM130.651 37.598V37.49C130.651 35.726 130.237 34.34 129.409 33.332C128.617 32.288 127.501 31.766 126.061 31.766C124.657 31.766 123.541 32.288 122.713 33.332C121.921 34.34 121.525 35.726 121.525 37.49V37.598H130.651ZM146.567 54.5C146.207 54.5 145.883 54.374 145.595 54.122C145.343 53.834 145.217 53.51 145.217 53.15V17.51C145.217 17.114 145.343 16.79 145.595 16.538C145.883 16.286 146.207 16.16 146.567 16.16H152.939C153.335 16.16 153.659 16.286 153.911 16.538C154.163 16.79 154.289 17.114 154.289 17.51V53.15C154.289 53.546 154.163 53.87 153.911 54.122C153.659 54.374 153.335 54.5 152.939 54.5H146.567ZM173.952 55.04C169.488 55.04 166.05 53.978 163.638 51.854C161.226 49.73 159.912 46.742 159.696 42.89C159.66 42.422 159.642 41.612 159.642 40.46C159.642 39.308 159.66 38.498 159.696 38.03C159.912 34.214 161.262 31.244 163.746 29.12C166.23 26.96 169.632 25.88 173.952 25.88C178.308 25.88 181.728 26.96 184.212 29.12C186.696 31.244 188.046 34.214 188.262 38.03C188.298 38.498 188.316 39.308 188.316 40.46C188.316 41.612 188.298 42.422 188.262 42.89C188.046 46.742 186.732 49.73 184.32 51.854C181.908 53.978 178.452 55.04 173.952 55.04ZM173.952 48.452C175.536 48.452 176.706 47.984 177.462 47.048C178.218 46.076 178.65 44.6 178.758 42.62C178.794 42.26 178.812 41.54 178.812 40.46C178.812 39.38 178.794 38.66 178.758 38.3C178.65 36.356 178.2 34.898 177.408 33.926C176.652 32.954 175.5 32.468 173.952 32.468C170.964 32.468 169.38 34.412 169.2 38.3L169.146 40.46L169.2 42.62C169.272 44.6 169.686 46.076 170.442 47.048C171.234 47.984 172.404 48.452 173.952 48.452ZM195.03 54.5C194.634 54.5 194.31 54.374 194.058 54.122C193.806 53.87 193.68 53.546 193.68 53.15V27.77C193.68 27.374 193.806 27.05 194.058 26.798C194.31 26.546 194.634 26.42 195.03 26.42H201.24C201.636 26.42 201.96 26.546 202.212 26.798C202.5 27.05 202.644 27.374 202.644 27.77V29.822C203.616 28.634 204.858 27.68 206.37 26.96C207.918 26.24 209.664 25.88 211.608 25.88C214.776 25.88 217.35 26.96 219.33 29.12C221.31 31.244 222.3 34.232 222.3 38.084V53.15C222.3 53.51 222.174 53.834 221.922 54.122C221.67 54.374 221.346 54.5 220.95 54.5H214.146C213.786 54.5 213.462 54.374 213.174 54.122C212.922 53.834 212.796 53.51 212.796 53.15V38.408C212.796 36.716 212.382 35.42 211.554 34.52C210.726 33.584 209.538 33.116 207.99 33.116C206.478 33.116 205.29 33.584 204.426 34.52C203.562 35.42 203.13 36.716 203.13 38.408V53.15C203.13 53.51 203.004 53.834 202.752 54.122C202.5 54.374 202.176 54.5 201.78 54.5H195.03Z" fill="white"/>
<path d="M30.0205 57.3935C34.2848 53.4491 37.2319 48.2879 38.4616 42.6106C38.5879 42.9128 38.7714 43.1877 39.0021 43.4201C39.2333 43.6524 39.5085 43.8361 39.8116 43.9606C40.453 44.218 41.1689 44.218 41.8103 43.9606C42.1166 43.8381 42.3947 43.6542 42.6273 43.4201C42.8577 43.1877 43.041 42.9128 43.167 42.6106C43.296 42.2934 43.3609 41.9537 43.3577 41.6113V0H59.9451V41.6096C59.9566 44.1725 59.4466 46.711 58.4461 49.0706C56.5152 53.662 52.8622 57.3141 48.2703 59.244C46.3487 60.0569 44.3039 60.5404 42.2217 60.6739C42.1826 60.6806 42.143 60.6848 42.1034 60.6864C39.6675 60.8525 37.2223 60.551 34.8998 59.7978C34.5834 59.6987 34.2677 59.5871 33.9579 59.4688C32.5677 58.9358 31.2459 58.2391 30.0205 57.3935Z" fill="white"/>
<path d="M0.000105626 41.6096V0H16.5543V41.6096C16.5514 41.9375 16.6164 42.2624 16.745 42.564C16.8842 42.8833 17.082 43.1736 17.328 43.4201C17.5592 43.6524 17.8343 43.8361 18.1375 43.9606C18.7789 44.218 19.4948 44.218 20.1362 43.9606C20.4425 43.8381 20.7206 43.6542 20.9531 43.4201C21.1854 43.1852 21.3708 42.9082 21.4994 42.604C21.6271 42.2882 21.6897 41.9501 21.6835 41.6096V0H38.2777V41.6096C38.2712 41.9523 38.3362 42.2927 38.4684 42.609C37.2387 48.2862 34.2916 53.4474 30.0272 57.3918C30.0072 57.3785 29.9806 57.3585 29.9614 57.346C29.4479 57.7019 28.9204 58.0312 28.3791 58.3337C28.3601 58.3457 28.3404 58.3565 28.32 58.3662C28.2933 58.3795 28.2609 58.3995 28.2209 58.4195C27.5005 58.8211 26.7524 59.1709 25.9824 59.4663C21.3514 61.2561 16.2055 61.1715 11.6359 59.2304C7.06639 57.2893 3.43275 53.6444 1.50578 49.0689C0.503787 46.7101 -0.008458 44.1724 0.000105626 41.6096Z" fill="white"/>
<g style="mix-blend-mode:multiply" opacity="0.16">
<g style="mix-blend-mode:multiply" opacity="0.16">
<path d="M30.0205 57.3916C34.2848 53.4472 37.2319 48.2859 38.4616 42.6087C38.5879 42.9109 38.7714 43.1858 39.0021 43.4182C39.2333 43.6505 39.5085 43.8342 39.8116 43.9587C40.453 44.216 41.1689 44.216 41.8103 43.9587C42.1166 43.8362 42.3947 43.6523 42.6273 43.4182C42.8577 43.1858 43.041 42.9109 43.167 42.6087C43.296 42.2915 43.3609 41.9518 43.3577 41.6094C43.433 45.0855 42.71 48.5327 41.2443 51.6857C39.7786 54.8387 37.6092 57.6135 34.9031 59.7967C34.5866 59.6976 34.271 59.586 33.9612 59.4678C32.5698 58.9347 31.2469 58.2377 30.0205 57.3916Z" fill="black"/>
</g>
</g>
<g style="mix-blend-mode:multiply" opacity="0.25">
<g style="mix-blend-mode:multiply" opacity="0.25">
<path d="M43.3574 35.7617V0H57.9962C56.7779 0.0832792 55.5595 0.151564 54.332 0.20403C53.1044 0.256496 51.896 0.335596 50.6777 0.370573C49.4593 0.40555 48.2342 0.46968 47.0134 0.489667L43.9445 0.572951C43.9973 3.36447 44.0282 6.15406 44.037 8.94169C44.0495 10.4299 44.037 11.9181 44.0303 13.4129C44.0237 14.9078 44.0237 16.3893 43.9903 17.8842L43.9071 22.3488C43.8679 23.8437 43.8413 25.3319 43.7821 26.8201C43.7366 28.3152 43.6753 29.8056 43.5981 31.2913C43.524 32.7795 43.4674 34.2744 43.3574 35.7617Z" fill="black"/>
</g>
</g>
<g style="mix-blend-mode:multiply" opacity="0.25">
<g style="mix-blend-mode:multiply" opacity="0.25">
<path d="M42.2217 60.6724C42.5048 60.6325 43.0778 60.5342 43.8814 60.356C45.4821 59.9993 47.0326 59.4463 48.4976 58.7096C49.4646 58.2245 50.3914 57.6631 51.2691 57.0306C52.242 56.3298 53.148 55.5405 53.9757 54.673C54.8589 53.7471 55.6465 52.7346 56.3267 51.6508C57.0365 50.5354 57.6257 49.3479 58.0847 48.1081C58.5576 46.8804 58.8928 45.604 59.084 44.3023C59.2593 43.0215 59.3427 41.7299 59.3339 40.4373C59.3797 37.8689 59.4521 35.4655 59.5446 33.4043C59.7111 29.2887 59.9393 26.543 59.9393 26.543V41.609C59.9507 44.1719 59.4407 46.7104 58.4403 49.07C56.5106 53.66 52.8598 57.3116 48.2702 59.2425C46.3487 60.0556 44.3039 60.5389 42.2217 60.6724Z" fill="black"/>
</g>
</g>
<rect x="56.5" width="173.25" height="11.25" fill="white"/>
</svg>
