<svg width="40" height="41" viewBox="0 0 40 41" fill="none" xmlns="http://www.w3.org/2000/svg">
<path d="M3.30628 3.38872C3.24978 3.44997 3.20523 3.52173 3.17503 3.60013C3.14204 3.67683 3.125 3.75974 3.125 3.84356C3.125 3.92739 3.14204 4.0103 3.17503 4.087C3.20371 4.16618 3.24845 4.23824 3.30628 4.29841C3.42476 4.41751 3.58408 4.48422 3.75003 4.48422C3.91598 4.48422 4.0753 4.41751 4.19378 4.29841C4.30997 4.17697 4.37506 4.01366 4.37506 3.84356C4.37506 3.67347 4.30997 3.51016 4.19378 3.38872C4.07291 3.27441 3.91449 3.21094 3.75003 3.21094C3.58557 3.21094 3.42715 3.27441 3.30628 3.38872V3.38872Z" fill="white"/>
<path d="M5.38753 3.2552C5.31028 3.2846 5.23999 3.33046 5.18128 3.38973C5.06509 3.51117 5 3.67448 5 3.84458C5 4.01467 5.06509 4.17798 5.18128 4.29942C5.2687 4.38977 5.38039 4.45138 5.50211 4.47641C5.62383 4.50144 5.75006 4.48875 5.86471 4.43995C5.97936 4.39116 6.07724 4.30847 6.14587 4.20244C6.21449 4.0964 6.25076 3.97182 6.25003 3.84458C6.24761 3.67499 6.18289 3.51257 6.06878 3.38973C5.98016 3.30207 5.86859 3.24268 5.74765 3.2188C5.6267 3.19491 5.50159 3.20756 5.38753 3.2552V3.2552Z" fill="white"/>
<path d="M7.26253 3.25501C7.18605 3.28597 7.11604 3.33163 7.05628 3.38955C6.94009 3.51098 6.875 3.67429 6.875 3.84439C6.875 4.01448 6.94009 4.17779 7.05628 4.29923C7.11707 4.35577 7.18682 4.40127 7.26253 4.43376C7.33767 4.46659 7.41836 4.484 7.50003 4.48501C7.58234 4.48587 7.66399 4.46989 7.7402 4.43799C7.8164 4.4061 7.88563 4.35895 7.94384 4.29929C8.00204 4.23963 8.04805 4.16867 8.07916 4.09056C8.11027 4.01244 8.12587 3.92876 8.12503 3.84439C8.12261 3.6748 8.05789 3.51238 7.94378 3.38955C7.85434 3.30326 7.74281 3.2448 7.6222 3.22098C7.50159 3.19716 7.37685 3.20897 7.26253 3.25501V3.25501Z" fill="white"/>
<path d="M18.125 12.1719H9.375V13.4531H18.125V12.1719Z" fill="white"/>
<path d="M18.125 16.0156H9.375V17.2969H18.125V16.0156Z" fill="white"/>
<path d="M21.25 19.8594H9.375V21.1406H21.25V19.8594Z" fill="white"/>
<path d="M17.5 23.7031H9.375V24.9844H17.5V23.7031Z" fill="white"/>
<path d="M14.375 27.5469H9.375V28.8281H14.375V27.5469Z" fill="white"/>
<path d="M13.125 31.3906H9.375V32.6719H13.125V31.3906Z" fill="white"/>
<path d="M36.3569 8.96875C36.0425 8.96782 35.7311 9.03087 35.4406 9.15426C35.1502 9.27764 34.8866 9.45891 34.665 9.68753L32.5 11.9067V3.20312C32.5 2.69341 32.3025 2.20458 31.9508 1.84415C31.5992 1.48373 31.1223 1.28125 30.625 1.28125H3.125C2.62772 1.28125 2.15081 1.48373 1.79917 1.84415C1.44754 2.20458 1.25 2.69341 1.25 3.20312V37.7969C1.25 38.3066 1.44754 38.7954 1.79917 39.1558C2.15081 39.5163 2.62772 39.7188 3.125 39.7188H30.625C31.1223 39.7187 31.5992 39.5163 31.9508 39.1558C32.3025 38.7954 32.5 38.3066 32.5 37.7969V18.8433L38.0488 13.1559C38.3836 12.8129 38.6117 12.3759 38.7042 11.9001C38.7966 11.4242 38.7493 10.931 38.5682 10.4827C38.387 10.0344 38.0803 9.65131 37.6866 9.38182C37.293 9.11233 36.8302 8.96857 36.3569 8.96875V8.96875ZM2.5 3.20312C2.5 3.03322 2.56585 2.87028 2.68306 2.75013C2.80027 2.62999 2.95924 2.5625 3.125 2.5625H30.625C30.7908 2.5625 30.9497 2.62999 31.0669 2.75013C31.1842 2.87028 31.25 3.03322 31.25 3.20312V5.125H2.5V3.20312ZM31.25 37.7969C31.25 37.9668 31.1842 38.1297 31.0669 38.2499C30.9497 38.37 30.7908 38.4375 30.625 38.4375H3.125C2.95924 38.4375 2.80027 38.37 2.68306 38.2499C2.56585 38.1297 2.5 37.9668 2.5 37.7969V6.40625H31.25V13.1879L27.5 17.0317V15.1098L20.8838 8.32812H6.25V36.5156H27.5V23.9683L31.25 20.1246V37.7969ZM16.3288 28.4822L14.6369 33.6847L19.7125 31.9505L21.5088 30.1094L26.25 25.2496V35.2344H7.5V9.60938H20V16.0156H26.25V18.3129L18.125 26.641L16.3288 28.4822ZM18.125 28.4527L19.7413 30.1094L19.0375 30.8307L16.6131 31.659L17.4213 29.1741L18.125 28.4527ZM21.25 10.5152L25.3663 14.7344H21.25V10.5152ZM20.625 29.2035L19.0088 27.5469L33.75 12.4371L35.3663 14.0938L20.625 29.2035ZM37.165 12.25L36.25 13.1879L34.6338 11.5312L35.5488 10.5934C35.654 10.4807 35.7802 10.3908 35.9198 10.3288C36.0595 10.2668 36.2098 10.2339 36.362 10.2323C36.5141 10.2306 36.6651 10.2601 36.806 10.319C36.9469 10.3779 37.0749 10.4651 37.1825 10.5754C37.2902 10.6857 37.3752 10.8169 37.4327 10.9613C37.4902 11.1058 37.5189 11.2605 37.5173 11.4165C37.5157 11.5725 37.4837 11.7265 37.4232 11.8697C37.3627 12.0128 37.2749 12.1421 37.165 12.25V12.25Z" fill="white"/>
</svg>
