<svg width="41" height="40" viewBox="0 0 41 40" fill="none" xmlns="http://www.w3.org/2000/svg">
<path d="M30.5939 26.0219L24.2258 20.6959L30.3756 14.6961L32.2248 8.5625L25.938 10.3665L20.2229 15.9423L21.1104 16.808L25.8249 12.2085L25.825 12.2086C26.0697 11.9699 26.4678 11.9698 26.7125 12.2085C26.9572 12.4472 26.9572 12.8356 26.7125 13.0744V13.0743L21.3586 18.2977L16.2167 13.9972C16.7411 12.7658 16.4569 11.3844 15.362 10.3162C14.247 9.22836 11.3092 8.70078 10.1694 8.99867C9.64711 9.13516 9.46453 9.42945 9.40327 9.65234C9.34177 9.87641 9.35042 10.2236 9.74112 10.6048C10.7872 11.6254 10.5273 12.1654 10.1677 12.9127C9.8875 13.495 9.46389 14.3751 10.3328 15.2227C11.0731 15.9448 11.9602 16.306 12.8473 16.306C13.2723 16.306 13.6971 16.2223 14.1059 16.0566L16.8751 19.2081L8.81445 27.0722L13.2521 31.4016L20.2643 24.5605L19.3768 23.6948L17.0981 25.918L14.4353 23.3202L17.6944 20.1405L18.5138 21.073L16.0626 23.4645L16.95 24.3303L19.3331 22.0053L26.4309 30.083C26.9644 30.6902 27.7401 31.0559 28.5592 31.0866C28.5966 31.088 28.6339 31.0887 28.6713 31.0887C29.451 31.0887 30.2069 30.7847 30.76 30.2451C31.3395 29.6796 31.6539 28.897 31.6225 28.098C31.591 27.2991 31.2162 26.5423 30.5939 26.0219ZM13.2523 29.6701L10.5895 27.0723L12.0688 25.6291L14.7316 28.2269L13.2523 29.6701ZM16.2107 26.7838L15.6191 27.361L12.9563 24.7632L13.548 24.186L16.2107 26.7838ZM30.3715 10.3706L29.5114 13.2235C29.4691 13.1722 29.424 13.1221 29.3752 13.0745C29.0437 12.7512 28.6102 12.5654 28.1457 12.5413C28.1214 12.105 27.941 11.6754 27.6001 11.3427C27.5512 11.2951 27.5 11.2511 27.4473 11.2098L30.3715 10.3706ZM27.6001 13.9403C27.7187 13.8246 27.8762 13.7609 28.0439 13.7609C28.2115 13.7609 28.3691 13.8246 28.4876 13.9403C28.7322 14.179 28.7322 14.5674 28.4876 14.8061L28.4876 14.8062L23.2702 19.8965L22.3143 19.0971L27.6001 13.9403ZM11.2204 14.357C11.0087 14.1504 10.9971 14.0709 11.3039 13.4333C11.6669 12.6791 12.2 11.5712 10.9992 10.137C11.965 10.1568 13.7988 10.5229 14.4745 11.1822C15.4629 12.1465 15.4629 13.3927 14.4745 14.357C13.4861 15.3212 12.2088 15.3213 11.2204 14.357ZM17.991 18.5965L15.1759 15.3928C15.2388 15.3382 15.301 15.2822 15.362 15.2227C15.4231 15.1631 15.4806 15.1024 15.5365 15.041L18.8201 17.7873C18.6102 18.1143 18.3257 18.392 17.991 18.5965ZM29.8724 29.3794C29.5344 29.7091 29.0837 29.8807 28.6074 29.8631C28.1296 29.8452 27.695 29.6403 27.3839 29.2862L18.8135 19.5327C19.1895 19.2769 19.5173 18.957 19.7795 18.59L29.777 26.9515C30.1401 27.2551 30.3499 27.679 30.3683 28.1452C30.3866 28.6113 30.2104 29.0496 29.8724 29.3794Z" fill="white"/>
<path d="M39.7449 3.56813C40.4752 3.31539 41 2.63484 41 1.83672C41 0.823906 40.1554 0 39.1174 0C38.0793 0 37.2347 0.823906 37.2347 1.83672C37.2347 2.63484 37.7595 3.31539 38.4898 3.56813V13.3262C37.5321 10.8697 36.0471 8.61547 34.1082 6.72367C30.9492 3.64172 26.8046 1.73477 22.3826 1.31461V0H18.6174V1.31461C14.1954 1.73484 10.0508 3.64172 6.89192 6.72367C4.95291 8.61555 3.46794 10.8697 2.51021 13.3262V3.56813C3.2406 3.31539 3.76527 2.63492 3.76527 1.83672C3.76527 0.823906 2.92077 0 1.88264 0C0.844504 0 0 0.823906 0 1.83672C0 2.63492 0.524752 3.31539 1.25506 3.56813V18.1633H0V21.8367H1.25506V36.4318C0.524752 36.6846 0 37.3652 0 38.1633C0 39.1761 0.844504 40 1.88264 40C2.92077 40 3.76527 39.1761 3.76527 38.1633C3.76527 37.3652 3.24052 36.6846 2.51013 36.4319V26.6738C3.46786 29.1303 4.95283 31.3845 6.89184 33.2763C10.0508 36.3583 14.1953 38.2652 18.6173 38.6854V40H22.3826V38.6847C26.8045 38.2648 30.9491 36.3582 34.1082 33.2763C36.0469 31.3848 37.5318 29.1309 38.4897 26.6749V36.4318C37.7593 36.6845 37.2346 37.3651 37.2346 38.1632C37.2346 39.176 38.0792 39.9999 39.1173 39.9999C40.1553 39.9999 41 39.1761 41 38.1633C41 37.3652 40.4752 36.6846 39.7449 36.4319V21.8367H41V18.1633H39.7449V3.56813ZM1.88264 1.22445C2.22873 1.22445 2.51021 1.49906 2.51021 1.83672C2.51021 2.17438 2.22873 2.44898 1.88264 2.44898C1.53654 2.44898 1.25506 2.17438 1.25506 1.83672C1.25506 1.49914 1.53662 1.22445 1.88264 1.22445ZM1.88264 38.7755C1.53654 38.7755 1.25506 38.5009 1.25506 38.1633C1.25506 37.8256 1.53654 37.551 1.88264 37.551C2.22873 37.551 2.51021 37.8256 2.51021 38.1633C2.51021 38.5009 2.22873 38.7755 1.88264 38.7755ZM2.51021 20.6123H1.25506V19.3878H2.51013V20.6123H2.51021ZM19.8724 1.22445H21.1275V2.44891H19.8724V1.22445ZM21.1276 38.7755H19.8725V37.5511H21.1276V38.7755ZM33.2207 32.4104C30.2966 35.263 26.4697 37.0385 22.3826 37.4541V36.3266H18.6174V37.4548C14.5302 37.0389 10.7033 35.2633 7.77943 32.4105C4.85546 29.5578 3.03552 25.8243 2.60967 21.8368H3.76527V18.1634H2.60959C3.0356 14.1759 4.85538 10.4424 7.77935 7.58961C10.7033 4.73688 14.5301 2.96117 18.6173 2.54531V3.67344H22.3826V2.54523C26.4697 2.96117 30.2965 4.7368 33.2204 7.58953C36.1444 10.4423 37.9642 14.1759 38.3903 18.1633H37.2347V21.8367H38.3912C37.9648 25.8242 36.1448 29.5577 33.2207 32.4104ZM39.1174 1.22445C39.4635 1.22445 39.7449 1.49906 39.7449 1.83672C39.7449 2.17438 39.4635 2.44898 39.1174 2.44898C38.7713 2.44898 38.4898 2.17438 38.4898 1.83672C38.4898 1.49914 38.7713 1.22445 39.1174 1.22445ZM39.1174 38.7755C38.7713 38.7755 38.4898 38.5009 38.4898 38.1633C38.4898 37.8256 38.7713 37.551 39.1174 37.551C39.4635 37.551 39.7449 37.8256 39.7449 38.1633C39.7449 38.5009 39.4634 38.7755 39.1174 38.7755ZM39.7449 20.6123H38.4899V19.3878H39.7449V20.6123Z" fill="white"/>
</svg>
