<svg width="41" height="41" viewBox="0 0 41 41" fill="none" xmlns="http://www.w3.org/2000/svg">
<path d="M2.5625 13.4531H1.28125V10.8906C1.2822 10.0414 1.61998 9.22725 2.22048 8.62675C2.82097 8.02625 3.63515 7.68848 4.48438 7.68752H26.2656V6.40627H24.9844C24.8577 6.40628 24.7338 6.36871 24.6285 6.29832C24.5231 6.22792 24.441 6.12787 24.3925 6.01081C24.344 5.89375 24.3313 5.76493 24.356 5.64066C24.3808 5.51639 24.4418 5.40224 24.5314 5.31265L28.3751 1.4689C28.4346 1.40941 28.5052 1.36221 28.583 1.33002C28.6607 1.29782 28.744 1.28125 28.8281 1.28125C28.9123 1.28125 28.9956 1.29782 29.0733 1.33002C29.151 1.36221 29.2216 1.40941 29.2811 1.4689L33.1249 5.31265C33.2145 5.40224 33.2755 5.51639 33.3002 5.64066C33.3249 5.76493 33.3122 5.89375 33.2638 6.01081C33.2153 6.12787 33.1332 6.22792 33.0278 6.29832C32.9224 6.36871 32.7986 6.40628 32.6719 6.40627H31.3906V7.68752H33.9531C34.8024 7.68848 35.6165 8.02625 36.217 8.62675C36.8175 9.22725 37.1553 10.0414 37.1562 10.8906V23.7031H35.875V10.8906C35.8744 10.3811 35.6717 9.89263 35.3114 9.53233C34.9511 9.17204 34.4627 8.96937 33.9531 8.96877H31.3906V20.5H30.1094V5.76565C30.1094 5.59574 30.1769 5.4328 30.297 5.31266C30.4171 5.19252 30.5801 5.12502 30.75 5.12502H31.1253L28.8281 2.82782L26.5309 5.12502H26.9062C27.0762 5.12502 27.2391 5.19252 27.3592 5.31266C27.4794 5.4328 27.5469 5.59574 27.5469 5.76565V21.1406H26.2656V8.96877H4.48438C3.97484 8.96937 3.48635 9.17204 3.12606 9.53233C2.76577 9.89263 2.56309 10.3811 2.5625 10.8906V13.4531ZM4.48438 33.3125H15.1545L13.617 38.4375H12.1719V39.7188H26.2656V38.4375H24.8205L23.9965 35.6908L22.7692 36.0592L23.4827 38.4375H14.9544L16.4919 33.3125H21.1406V32.0313H4.48438C3.97484 32.0307 3.48635 31.828 3.12606 31.4677C2.76577 31.1074 2.56309 30.6189 2.5625 30.1094V29.4688H20.5V28.1875H2.5625V14.7344H1.28125V30.1094C1.2822 30.9586 1.61998 31.7728 2.22048 32.3733C2.82097 32.9738 3.63515 33.3116 4.48438 33.3125V33.3125ZM23.7031 22.4219V12.1719H21.1406V26.9063H4.48438V25.625H7.04688V20.5C7.04688 20.3301 7.11437 20.1672 7.23451 20.047C7.35465 19.9269 7.5176 19.8594 7.6875 19.8594H11.5312C11.7012 19.8594 11.8641 19.9269 11.9842 20.047C12.1044 20.1672 12.1719 20.3301 12.1719 20.5V25.625H13.4531V16.0156C13.4531 15.8457 13.5206 15.6828 13.6408 15.5627C13.7609 15.4425 13.9238 15.375 14.0938 15.375H17.9375C18.1074 15.375 18.2704 15.4425 18.3905 15.5627C18.5106 15.6828 18.5781 15.8457 18.5781 16.0156V25.625H19.8594V11.5313C19.8594 11.3614 19.9269 11.1984 20.047 11.0783C20.1671 10.9581 20.3301 10.8906 20.5 10.8906H24.3438C24.5137 10.8906 24.6766 10.9581 24.7967 11.0783C24.9169 11.1984 24.9844 11.3614 24.9844 11.5313V22.4219H23.7031ZM10.8906 21.1406H8.32812V25.625H10.8906V21.1406ZM17.2969 16.6563H14.7344V25.625H17.2969V16.6563ZM4.48438 10.25V11.5313H5.76562V10.25H4.48438ZM8.32812 10.25H7.04688V11.5313H8.32812V10.25ZM9.60938 10.25V11.5313H10.8906V10.25H9.60938ZM39.1556 36.4382C39.5148 36.7993 39.7171 37.2875 39.7188 37.7969C39.719 38.0493 39.6694 38.2994 39.5729 38.5326C39.4764 38.7659 39.3349 38.9779 39.1564 39.1564C38.9779 39.3349 38.7659 39.4765 38.5326 39.573C38.2993 39.6695 38.0493 39.719 37.7969 39.7188C37.2881 39.7143 36.8009 39.5124 36.4382 39.1556L33.3718 36.0892C31.7588 37.0407 29.8542 37.3712 28.0149 37.0188C26.1757 36.6664 24.5282 35.6552 23.3812 34.1748C22.2342 32.6945 21.6666 30.8466 21.7847 28.9776C21.9028 27.1087 22.6986 25.347 24.0227 24.0228C25.3469 22.6986 27.1087 21.9028 28.9776 21.7847C30.8466 21.6666 32.6945 22.2343 34.1748 23.3812C35.6552 24.5282 36.6663 26.1757 37.0188 28.015C37.3712 29.8542 37.0407 31.7588 36.0892 33.3718L39.1556 36.4382ZM35.875 29.4688C35.875 28.2017 35.4993 26.9632 34.7954 25.9097C34.0914 24.8562 33.0909 24.035 31.9203 23.5502C30.7497 23.0653 29.4616 22.9384 28.219 23.1856C26.9763 23.4328 25.8348 24.0429 24.9388 24.9389C24.0429 25.8348 23.4328 26.9763 23.1856 28.219C22.9384 29.4617 23.0653 30.7498 23.5501 31.9203C24.035 33.0909 24.8561 34.0914 25.9096 34.7954C26.9631 35.4993 28.2017 35.875 29.4688 35.875C31.1672 35.8731 32.7955 35.1975 33.9965 33.9965C35.1975 32.7956 35.8731 31.1672 35.875 29.4688V29.4688ZM38.2495 37.3443L35.3357 34.4303C35.0593 34.7566 34.7565 35.0594 34.4303 35.3357L37.3443 38.2495C37.4031 38.3115 37.4738 38.361 37.5521 38.3953C37.6304 38.4295 37.7147 38.4477 37.8002 38.4488C37.8856 38.4499 37.9704 38.4339 38.0496 38.4017C38.1287 38.3695 38.2006 38.3218 38.2611 38.2614C38.3215 38.201 38.3692 38.1291 38.4014 38.0499C38.4336 37.9707 38.4496 37.8859 38.4485 37.8005C38.4474 37.7151 38.4292 37.6307 38.3949 37.5524C38.3607 37.4741 38.3111 37.4035 38.2492 37.3446L38.2495 37.3443ZM34.5938 29.4688C34.5938 30.4824 34.2932 31.4733 33.73 32.3161C33.1669 33.1589 32.3665 33.8158 31.43 34.2037C30.4935 34.5916 29.4631 34.693 28.4689 34.4953C27.4748 34.2976 26.5616 33.8094 25.8448 33.0927C25.1281 32.376 24.64 31.4628 24.4422 30.4686C24.2445 29.4745 24.346 28.444 24.7339 27.5075C25.1218 26.5711 25.7787 25.7706 26.6215 25.2075C27.4643 24.6444 28.4551 24.3438 29.4688 24.3438C30.8275 24.3453 32.1302 24.8857 33.091 25.8465C34.0518 26.8073 34.5922 28.11 34.5938 29.4688V29.4688ZM33.3125 29.4688C33.3125 28.7086 33.0871 27.9654 32.6647 27.3333C32.2424 26.7012 31.642 26.2085 30.9397 25.9176C30.2373 25.6267 29.4645 25.5506 28.7189 25.6989C27.9733 25.8472 27.2884 26.2133 26.7508 26.7508C26.2132 27.2884 25.8472 27.9733 25.6989 28.7189C25.5505 29.4645 25.6267 30.2374 25.9176 30.9397C26.2085 31.6421 26.7012 32.2424 27.3333 32.6647C27.9654 33.0871 28.7085 33.3125 29.4688 33.3125C30.4878 33.3114 31.4649 32.9061 32.1855 32.1855C32.9061 31.4649 33.3114 30.4879 33.3125 29.4688ZM26.9062 29.4688H28.1875C28.1879 29.1291 28.323 28.8034 28.5632 28.5632C28.8034 28.323 29.1291 28.1879 29.4688 28.1875V26.9063C28.7894 26.907 28.138 27.1773 27.6576 27.6577C27.1772 28.1381 26.907 28.7894 26.9062 29.4688ZM35.2344 5.12502H36.5156C36.5145 4.10594 36.1092 3.12892 35.3886 2.40832C34.668 1.68772 33.691 1.2824 32.6719 1.28127V2.56252C33.3513 2.56329 34.0026 2.83351 34.483 3.3139C34.9634 3.7943 35.2336 4.44564 35.2344 5.12502Z" fill="white"/>
</svg>
