<svg width="40" height="40" viewBox="0 0 40 40" fill="none" xmlns="http://www.w3.org/2000/svg">
<path d="M37.5915 0.0121936L33.8412 2.81942L30.0695 11.613H27.0366L25.8457 9.03231H26.6238C28.047 9.03231 29.2045 7.8872 29.2045 6.46394V3.87091H30.4948V0H26.6238V3.87091H27.9141V6.46394C27.9141 7.17496 27.3355 7.74196 26.6238 7.74196H25.2502L23.6011 4.17426L25.5766 3.1897L19.1082 0.419323L17.5875 5.74127C17.5462 2.57487 14.9611 0.0116516 11.7849 0.0116516C8.58302 0.0116516 5.97848 2.61619 5.97848 5.81809C5.97848 7.75293 6.95843 9.56774 8.55917 10.6406V11.6129H6.99664L6.89597 12.1419C6.58246 13.7684 6.55333 15.44 6.80953 17.1071L2.4082 24.9523L7.26882 26.0626V34.1936H13.7204V40H29.2043V31.0097C33.7204 27.8148 36.2998 22.6781 36.296 17.1981L36.2973 14.8446C36.2973 13.9574 36.2154 13.0459 36.0502 12.1478L35.9547 11.6129H34.6882L37.5915 4.65739V0.0121936ZM27.914 2.59289V1.30254H29.2043V2.59289H27.914V2.59289ZM25.6154 11.6129H23.1683L21.9954 9.03217H24.4245L25.6154 11.6129ZM19.9456 2.18387L22.5102 3.28264L21.905 3.57935L23.8289 7.74196H21.4089L19.8366 4.29105L19.2592 4.58261L19.9456 2.18387ZM21.7508 11.613H18.8818V10.335C18.8818 9.62342 19.4605 9.03244 20.1722 9.03244H20.578V9.03231L21.7508 11.613ZM19.2173 6.04963L19.9998 7.77163C18.6579 7.862 17.5915 8.97039 17.5915 10.3348V11.6129H15.0108V10.6406C16.3018 9.77544 17.1778 8.4252 17.4733 6.92133L19.2173 6.04963ZM7.26896 5.81876C7.26896 3.32911 9.29539 1.30268 11.785 1.30268C14.2747 1.30268 16.3011 3.32911 16.3011 5.81876C16.3011 7.4214 15.4354 8.91877 14.0425 9.72585L13.7206 9.9116V11.6129H12.4302V7.63479C13.1793 7.36775 13.7206 6.65795 13.7206 5.81795C13.7206 4.75088 12.8521 3.88243 11.785 3.88243C10.718 3.88243 9.84952 4.75101 9.84952 5.81809C9.84952 6.65809 10.3908 7.36775 11.1399 7.63492V11.613H9.84952V9.9116L9.52761 9.72517C8.1347 8.91809 7.26896 7.42127 7.26896 5.81876ZM11.785 6.46394C11.4289 6.46394 11.1399 6.17414 11.1399 5.81876C11.1399 5.46258 11.4289 5.17359 11.785 5.17359C12.1412 5.17359 12.4302 5.46258 12.4302 5.81876C12.4302 6.17495 12.1412 6.46394 11.785 6.46394ZM34.8688 12.9034C34.9624 13.5484 35.0096 14.2026 35.0096 14.8387L35.0109 17.1968C35.0148 22.3653 32.4645 27.2052 28.198 30.1426L27.9141 30.3362V38.7098H15.0109V32.9034H8.55917V25.0336L4.37787 24.0794L8.15462 17.3459L8.1179 17.1155C7.87796 15.7039 7.86441 14.1936 8.07279 12.9034H8.55917H15.0108H34.8688V12.9034ZM33.2901 11.6129H31.4728L34.6889 4.11478L36.1192 4.82702L33.2901 11.6129ZM36.3011 3.48383L35.5875 3.1271L36.3011 2.59289V3.48383Z" fill="white"/>
<path d="M13.0755 16.7754C12.0084 16.7754 11.14 16.1302 11.14 14.8398H9.84961C9.84961 16.7754 11.2967 18.0657 13.0755 18.0657C14.8542 18.0657 16.3013 16.7754 16.3013 14.8398H15.011C15.0109 16.1302 14.1425 16.7754 13.0755 16.7754Z" fill="white"/>
</svg>
