<svg width="40" height="39" viewBox="0 0 40 39" fill="none" xmlns="http://www.w3.org/2000/svg">
<path d="M20.1974 5.40836L20.1409 5.4082C20.1401 5.4082 20.1395 5.4082 20.1387 5.4082C19.7082 5.4082 19.3586 5.74785 19.3574 6.16787C19.3574 6.16847 19.3574 6.16908 19.3574 6.16969C19.3573 6.58955 19.7057 6.9305 20.1366 6.93164L20.1932 6.93179C20.1939 6.93179 20.1946 6.93179 20.1953 6.93179C20.6258 6.93179 20.9754 6.59214 20.9766 6.17213C20.9766 6.17152 20.9766 6.17091 20.9766 6.1703C20.9767 5.75044 20.6283 5.4095 20.1974 5.40836Z" fill="white"/>
<path d="M39.1712 10.1393C38.6582 8.23764 37.145 6.74002 35.2226 6.23089C33.2402 5.70446 27.7132 5.51061 23.4257 5.44076C22.9968 5.43504 22.6387 5.76906 22.6315 6.18968C22.6243 6.6103 22.9682 6.95703 23.3996 6.96404C29.334 7.06078 33.387 7.32243 34.8125 7.70093C36.1977 8.06777 37.2888 9.15056 37.6602 10.5272C38.4281 13.3671 38.4375 19.4391 38.4375 19.5C38.4375 19.561 38.4281 25.633 37.6601 28.4734C37.2888 29.8496 36.1977 30.9324 34.812 31.2994C31.9489 32.0596 20.1191 32.0685 20 32.0685C19.8809 32.0685 8.05109 32.0595 5.1875 31.2992C3.80234 30.9324 2.71117 29.8496 2.33984 28.4729C1.57188 25.633 1.5625 19.561 1.5625 19.5001C1.5625 19.4391 1.57187 13.3671 2.33992 10.5268C2.71117 9.15063 3.80234 8.06785 5.18797 7.70085C6.64477 7.31405 10.8176 7.05057 16.9379 6.95879C17.3693 6.95239 17.7136 6.60611 17.707 6.18549C17.7004 5.76487 17.3441 5.43192 16.9138 5.43558C12.4944 5.50177 6.80141 5.69357 4.77789 6.23081C2.855 6.74002 1.3418 8.23771 0.828984 10.1389C0.00945315 13.1696 0 19.243 0 19.5001C0 19.7572 0.00945315 25.8306 0.828828 28.8609C1.3418 30.7625 2.855 32.2601 4.77742 32.7692C7.84055 33.5825 19.505 33.5919 20 33.5919C20.495 33.5919 32.1595 33.5825 35.2221 32.7694C37.145 32.2602 38.6582 30.7625 39.171 28.8613C39.9905 25.8306 40 19.7572 40 19.5001C40 19.243 39.9905 13.1696 39.1712 10.1393Z" fill="white"/>
<path d="M4.53125 17.4824C4.09977 17.4824 3.75 17.8234 3.75 18.2441V24.4521C3.75 24.8728 4.09977 25.2139 4.53125 25.2139C4.96273 25.2139 5.3125 24.8728 5.3125 24.4521V18.2441C5.3125 17.8234 4.96273 17.4824 4.53125 17.4824Z" fill="white"/>
<path d="M4.53125 14.0176C4.09977 14.0176 3.75 14.3586 3.75 14.7793V14.7883C3.75 15.209 4.09977 15.55 4.53125 15.55C4.96273 15.55 5.3125 15.209 5.3125 14.7883V14.7793C5.3125 14.3586 4.96273 14.0176 4.53125 14.0176Z" fill="white"/>
<path d="M26.3367 18.9566L16.6492 13.4722C16.4075 13.3353 16.1093 13.3348 15.8671 13.4707C15.6249 13.6067 15.4756 13.8585 15.4756 14.1309V25.0997C15.4756 25.3722 15.6249 25.6239 15.8671 25.7598C15.9877 25.8276 16.1222 25.8614 16.2568 25.8614C16.3924 25.8614 16.5279 25.8271 16.6492 25.7584L26.3367 20.274C26.5775 20.1377 26.7257 19.8868 26.7257 19.6153C26.7257 19.3438 26.5775 19.0929 26.3367 18.9566ZM17.0381 23.7766V15.454L24.3885 19.6153L17.0381 23.7766Z" fill="white"/>
</svg>
